<?xml version="1.0" encoding="UTF-8" standalone="no"?>
<!DOCTYPE svg PUBLIC "-//W3C//DTD SVG 1.1//EN" "http://www.w3.org/Graphics/SVG/1.1/DTD/svg11.dtd">
<svg width="100%" height="100%" viewBox="0 0 256 64" version="1.1" xmlns="http://www.w3.org/2000/svg" xmlns:xlink="http://www.w3.org/1999/xlink" xml:space="preserve" xmlns:serif="http://www.serif.com/" style="fill-rule:evenodd;clip-rule:evenodd;stroke-linejoin:round;stroke-miterlimit:1.41421;">
    <g transform="matrix(1,0,0,1,0,-96)">
        <g transform="matrix(1,0,0,1,-477.5,-332.8)">
            <rect x="477.5" y="454.2" width="30.7" height="4.2"/>
        </g>
        <g transform="matrix(1,0,0,1,-477.5,-332.8)">
            <rect x="477.5" y="462.6" width="30.7" height="4.2"/>
        </g>
        <g transform="matrix(1,0,0,1,-477.5,-332.8)">
            <path d="M497.1,450C499.9,447.1 503.8,445.3 508.2,445.3C512.5,445.3 516.3,447 519.1,449.8L522,446.9C518.5,443.4 513.6,441.2 508.2,441.2C501.4,441.2 495.3,444.7 491.8,450.1L497.1,450Z" style="fill-rule:nonzero;"/>
            <path d="M508.2,476.1C503.7,476.1 499.6,474.2 496.8,471L491.7,471C495.2,476.5 501.3,480.2 508.3,480.2C513.7,480.2 518.6,478 522.1,474.5L519.2,471.6C516.3,474.4 512.5,476.1 508.2,476.1Z" style="fill-rule:nonzero;"/>
        </g>
        <g transform="matrix(1,0,0,1,-477.5,-332.8)">
            <path d="M485.4,450C489.4,441.5 498.1,435.6 508.1,435.6C515,435.6 521.3,438.4 525.9,442.9L530.7,438.1C524.9,432.3 517,428.8 508.2,428.8C494.3,428.8 482.6,437.6 478.2,450L485.4,450Z" style="fill-rule:nonzero;"/>
            <path d="M508.1,485.8C497.9,485.8 489.2,479.8 485.3,471.1L478,471.1C482.3,483.6 494.2,492.6 508.1,492.6C516.9,492.6 524.9,489 530.6,483.3L525.8,478.5C521.3,483 515,485.8 508.1,485.8Z" style="fill-rule:nonzero;"/>
        </g>
        <g transform="matrix(1,0,0,1,-477.5,-332.8)">
            <path d="M588.3,468.3L591.3,474.3C591.3,474.3 587.8,477.2 581.1,477.2C572.3,477.2 564.2,470 564.2,461.1C564.2,452.1 572.2,444.8 581.1,444.8C587.9,444.8 591.3,447.7 591.3,447.7L588.3,453.7C588.3,453.7 585.8,451.8 582.2,451.8C575,451.8 571.9,456.8 571.9,461C571.9,465.2 575,470.2 582.2,470.2C585.8,470.2 588.3,468.3 588.3,468.3Z" style="fill-rule:nonzero;"/>
            <path d="M602.4,449.2C602.4,451.4 600.6,453.2 598.4,453.2C596.2,453.2 594.4,451.4 594.4,449.2C594.4,447 596.2,445.2 598.4,445.2C600.7,445.2 602.4,447 602.4,449.2Z" style="fill-rule:nonzero;"/>
            <rect x="595" y="457.2" width="6.7" height="19.4"/>
            <path d="M608.5,450L615.2,450L615.2,457.2L619.3,457.2L619.3,462.3L615.2,462.3L615.2,468.4C615.2,470.2 615.6,471.1 616.7,471.1C617.6,471.1 618.4,470.5 618.4,470.5L620.1,475.9C620.1,475.9 618,477.1 615.2,477.1C609.9,477.1 608.6,473.1 608.6,469.7L608.6,462.2L605.8,462.2L605.8,457.1L608.6,457.1L608.6,450L608.5,450Z" style="fill-rule:nonzero;"/>
            <path d="M631.4,449.2C631.4,451.4 629.6,453.2 627.4,453.2C625.2,453.2 623.4,451.4 623.4,449.2C623.4,447 625.2,445.2 627.4,445.2C629.5,445.2 631.4,447 631.4,449.2Z" style="fill-rule:nonzero;"/>
            <rect x="623.9" y="457.2" width="6.7" height="19.4"/>
            <path d="M659,468.3L662,474.3C662,474.3 658.5,477.2 651.8,477.2C643,477.2 634.9,470 634.9,461.1C634.9,452.1 642.9,444.8 651.8,444.8C658.6,444.8 662,447.7 662,447.7L659,453.7C659,453.7 656.5,451.8 652.9,451.8C645.7,451.8 642.6,456.8 642.6,461C642.6,465.2 645.7,470.2 652.9,470.2C656.5,470.2 659,468.3 659,468.3Z" style="fill-rule:nonzero;"/>
            <path d="M673.6,456.7C676.2,456.7 678.4,457.6 679.9,459.1L679.9,457.2L686.6,457.2L686.6,476.6L680,476.6L680,474.4L679.9,474.4C678.5,476 676.2,477.2 673.6,477.2C668,477.2 663.9,472.6 663.9,467C663.9,461.3 667.9,456.7 673.6,456.7ZM675.6,471.5C678.2,471.5 680.1,469.6 680.1,467C680.1,464.3 678.1,462.4 675.6,462.4C673.1,462.4 671.1,464.3 671.1,467C671,469.6 672.8,471.5 675.6,471.5Z" style="fill-rule:nonzero;"/>
            <path d="M707.1,458.2L704.9,462.6C704.9,462.6 702.6,461.4 700.6,461.4C699.1,461.4 698.5,461.7 698.5,462.6C698.5,463.6 699.9,463.9 701.5,464.5C704.1,465.3 707.4,466.8 707.4,470.7C707.4,476.4 702.2,477.4 698.2,477.4C693.5,477.4 690.7,474.8 690.7,474.8L693.4,470.2C693.4,470.2 696,472.5 698.2,472.5C699.1,472.5 700.3,472.4 700.3,471.1C700.3,469.7 698.2,469.6 696,468.5C694.1,467.5 692,466.1 692,463.2C692,459.2 695.4,457 700.5,457C704.4,456.7 707.1,458.2 707.1,458.2Z" style="fill-rule:nonzero;"/>
            <path d="M712.2,444.1L718.9,444.1L718.9,459.3L719,459.3C720.5,457.8 722.5,456.7 724.6,456.7C728.2,456.7 733.1,458.5 733.1,463.9L733.1,476.6L726.3,476.6L726.3,465.6C726.3,463.7 725,461.8 722.8,461.8C720.8,461.8 718.8,463.7 718.8,465.6L718.8,476.6L712.1,476.6L712.1,444.1L712.2,444.1Z" style="fill-rule:nonzero;"/>
        </g>
    </g>
</svg>
