<?xml version="1.0" encoding="utf-8"?>
<!-- Generator: Adobe Illustrator 20.0.0, SVG Export Plug-In . SVG Version: 6.00 Build 0)  -->
<svg version="1.1" xmlns="http://www.w3.org/2000/svg" xmlns:xlink="http://www.w3.org/1999/xlink" x="0px" y="0px"
	 viewBox="0 0 414 116" style="enable-background:new 0 0 414 116;" xml:space="preserve">
<style type="text/css">
	.st0{fill:#0084FF;}
	.st1{fill:#E84855;}
	.st2{fill:none;}
	.st3{font-family:'Montserrat-Light';}
	.st4{font-size:18px;}
	.st5{letter-spacing:15;}
</style>
<g id="Vrstva_1">
	<rect x="0.5" y="49.3" class="st0" width="48.9" height="6.7"/>
	<rect x="0.5" y="62.7" class="st0" width="48.9" height="6.7"/>
	<g>
		<path class="st1" d="M31.8,42.6c4.5-4.6,10.7-7.5,17.7-7.5c6.8,0,12.9,2.7,17.4,7.2l4.7-4.7c-5.6-5.6-13.4-9.1-22-9.1
			c-10.9,0-20.5,5.6-26.1,14.2H31.8z"/>
		<path class="st1" d="M49.5,84.2c-7.2,0-13.7-3.1-18.2-8.1h-8.2c5.5,8.8,15.3,14.7,26.4,14.7c8.6,0,16.4-3.5,22-9.1L66.9,77
			C62.4,81.4,56.3,84.2,49.5,84.2z"/>
	</g>
	<g>
		<path class="st0" d="M13.1,42.6c6.4-13.6,20.2-23,36.2-23c11,0,21,4.5,28.3,11.7l7.6-7.6C76,14.5,63.3,8.9,49.3,8.9
			C27.2,8.9,8.5,23,1.5,42.6H13.1z"/>
		<path class="st0" d="M49.3,99.6c-16.2,0-30.2-9.6-36.4-23.5H1.3c6.8,19.9,25.7,34.3,48,34.3c14,0,26.7-5.7,35.9-14.9l-7.6-7.6
			C70.3,95.2,60.3,99.6,49.3,99.6z"/>
	</g>
	<g>
		<path class="st0" d="M177.1,47.5l4.8,9.6c0,0-5.5,4.6-16.3,4.6c-14,0-26.9-11.5-26.9-25.7c0-14.3,12.8-25.9,26.9-25.9
			c10.8,0,16.3,4.6,16.3,4.6l-4.8,9.6c0,0-4-3.1-9.8-3.1c-11.4,0-16.4,8-16.4,14.6c0,6.7,5,14.6,16.4,14.6
			C173.1,50.6,177.1,47.5,177.1,47.5z"/>
		<circle class="st1" cx="193.2" cy="17.1" r="6.3"/>
		<rect x="187.8" y="29.9" class="st0" width="10.7" height="30.9"/>
		<path class="st0" d="M209.3,18.4H220v11.5h6.5v8.1H220v9.8c0,2.9,0.7,4.3,2.4,4.3c1.4,0,2.7-1,2.7-1l2.7,8.6c0,0-3.4,1.9-7.8,1.9
			c-8.5,0-10.5-6.3-10.5-11.8V38.1h-4.5v-8.1h4.5V18.4z"/>
		<circle class="st1" cx="239.3" cy="17.1" r="6.3"/>
		<rect x="233.9" y="29.9" class="st0" width="10.7" height="30.9"/>
		<path class="st0" d="M289.7,47.5l4.8,9.6c0,0-5.5,4.6-16.3,4.6c-14,0-26.9-11.5-26.9-25.7c0-14.3,12.8-25.9,26.9-25.9
			c10.8,0,16.3,4.6,16.3,4.6l-4.8,9.6c0,0-4-3.1-9.8-3.1c-11.4,0-16.4,8-16.4,14.6c0,6.7,5,14.6,16.4,14.6
			C285.8,50.6,289.7,47.5,289.7,47.5z"/>
		<path class="st0" d="M313,29c4.2,0,7.6,1.4,10.1,3.9v-3h10.7v30.9h-10.6v-3.5h-0.1c-2.3,2.5-5.9,4.4-10.1,4.4
			c-9,0-15.4-7.3-15.4-16.3S303.9,29,313,29z M316.2,52.6c4.2,0,7.2-3,7.2-7.2c0-4.3-3.2-7.3-7.2-7.3c-4,0-7.2,3-7.2,7.3
			C308.9,49.6,311.8,52.6,316.2,52.6z"/>
		<path class="st0" d="M366.5,31.4l-3.5,7c0,0-3.6-1.9-6.9-1.9c-2.4,0-3.3,0.4-3.3,1.9c0,1.6,2.2,2.1,4.8,3c4.1,1.3,9.4,3.6,9.4,9.9
			c0,9.1-8.3,10.6-14.7,10.6c-7.5,0-11.9-4.2-11.9-4.2l4.3-7.3c0,0,4.2,3.6,7.7,3.6c1.5,0,3.3-0.2,3.3-2.2c0-2.2-3.4-2.4-6.9-4.2
			c-3.1-1.6-6.3-3.8-6.3-8.4c0-6.3,5.4-9.9,13.5-9.9C362.1,29,366.5,31.4,366.5,31.4z"/>
		<path class="st0" d="M374.5,9h10.7v24.2h0.1c2.4-2.4,5.5-4.2,8.9-4.2c5.7,0,13.6,2.8,13.6,11.5v20.4H397V43.4c0-3.1-2.1-6-5.5-6
			c-3.2,0-6.3,3-6.3,6v17.5h-10.7V9z"/>
	</g>
	<rect x="144" y="72" class="st2" width="270" height="36"/>
	<text transform="matrix(1 0 0 1 144 85.3555)"><tspan x="0" y="0" class="st0 st3 st4 st5">BLOCKCHAIN</tspan><tspan x="0" y="21.6" class="st0 st3 st4 st5">EXPLORER</tspan></text>
</g>
<g id="Vrstva_2">
</g>
</svg>
