<?xml version="1.0" encoding="UTF-8" standalone="no"?>
<!DOCTYPE svg PUBLIC "-//W3C//DTD SVG 1.1//EN" "http://www.w3.org/Graphics/SVG/1.1/DTD/svg11.dtd">
<svg width="100%" height="100%" viewBox="0 0 200 200" version="1.1" xmlns="http://www.w3.org/2000/svg" xmlns:xlink="http://www.w3.org/1999/xlink" xml:space="preserve" xmlns:serif="http://www.serif.com/" style="fill-rule:evenodd;clip-rule:evenodd;stroke-linejoin:round;stroke-miterlimit:1.41421;">
    <g transform="matrix(3.1348,0,0,3.1348,-1480.25,-1344.51)">
        <rect x="477.5" y="454.3" width="30.7" height="4.2" style="fill:rgb(49,133,252);"/>
    </g>
    <g transform="matrix(3.1348,0,0,3.1348,-1480.25,-1344.51)">
        <rect x="477.5" y="462.7" width="30.7" height="4.2" style="fill:rgb(49,133,252);"/>
    </g>
    <g transform="matrix(3.1348,0,0,3.1348,-1480.25,-1344.51)">
        <path d="M497.1,450.1C499.9,447.2 503.8,445.4 508.2,445.4C512.5,445.4 516.3,447.1 519.1,449.9L522,447C518.5,443.5 513.6,441.3 508.2,441.3C501.4,441.3 495.3,444.8 491.8,450.2L497.1,450.1Z" style="fill:rgb(232,72,85);fill-rule:nonzero;"/>
        <path d="M508.2,476.2C503.7,476.2 499.6,474.3 496.8,471.1L491.7,471.1C495.2,476.6 501.3,480.3 508.3,480.3C513.7,480.3 518.6,478.1 522.1,474.6L519.2,471.7C516.3,474.5 512.5,476.2 508.2,476.2Z" style="fill:rgb(232,72,85);fill-rule:nonzero;"/>
    </g>
    <g transform="matrix(3.1348,0,0,3.1348,-1480.25,-1344.51)">
        <path d="M485.4,450.1C489.4,441.6 498.1,435.7 508.1,435.7C515,435.7 521.3,438.5 525.9,443L530.7,438.2C524.9,432.4 517,428.9 508.2,428.9C494.3,428.9 482.6,437.7 478.2,450.1L485.4,450.1Z" style="fill:rgb(49,133,252);fill-rule:nonzero;"/>
        <path d="M508.1,485.9C497.9,485.9 489.2,479.9 485.3,471.2L478,471.2C482.3,483.7 494.2,492.7 508.1,492.7C516.9,492.7 524.9,489.1 530.6,483.4L525.8,478.6C521.3,483.1 515,485.9 508.1,485.9Z" style="fill:rgb(49,133,252);fill-rule:nonzero;"/>
    </g>
</svg>
