<?xml version="1.0" encoding="UTF-8" standalone="no"?>
<!DOCTYPE svg PUBLIC "-//W3C//DTD SVG 1.1//EN" "http://www.w3.org/Graphics/SVG/1.1/DTD/svg11.dtd">
<svg width="100%" height="100%" viewBox="0 0 85 102" version="1.1" xmlns="http://www.w3.org/2000/svg" xmlns:xlink="http://www.w3.org/1999/xlink" xml:space="preserve" xmlns:serif="http://www.serif.com/" style="fill-rule:evenodd;clip-rule:evenodd;stroke-linejoin:round;stroke-miterlimit:1.41421;">
    <g transform="matrix(1,0,0,1,-477.5,-332.8)">
        <rect x="477.5" y="373.3" width="48.9" height="6.7" style="fill:white;"/>
    </g>
    <g transform="matrix(1,0,0,1,-477.5,-332.8)">
        <rect x="477.5" y="386.7" width="48.9" height="6.7" style="fill:white;"/>
    </g>
    <g transform="matrix(1,0,0,1,-477.5,-332.8)">
        <g>
            <path d="M508.8,366.6C513.3,362 519.5,359.1 526.5,359.1C533.3,359.1 539.4,361.8 543.9,366.3L548.6,361.6C543,356 535.2,352.5 526.6,352.5C515.7,352.5 506.1,358.1 500.5,366.7L508.8,366.7L508.8,366.6Z" style="fill:white;fill-rule:nonzero;"/>
            <path d="M526.5,408.2C519.3,408.2 512.8,405.1 508.3,400.1L500.1,400.1C505.6,408.9 515.4,414.8 526.5,414.8C535.1,414.8 542.9,411.3 548.5,405.7L543.8,401C539.4,405.4 533.3,408.2 526.5,408.2Z" style="fill:white;fill-rule:nonzero;"/>
        </g>
    </g>
    <g transform="matrix(1,0,0,1,-477.5,-332.8)">
        <g>
            <path d="M490.1,366.6C496.5,353 510.3,343.6 526.3,343.6C537.3,343.6 547.3,348.1 554.6,355.3L562.2,347.7C553,338.5 540.3,332.8 526.3,332.8C504.2,332.8 485.5,346.9 478.5,366.6L490.1,366.6Z" style="fill:white;fill-rule:nonzero;"/>
            <path d="M526.3,423.6C510.1,423.6 496.1,414 489.9,400.1L478.3,400.1C485.1,420 504.1,434.4 526.3,434.4C540.3,434.4 553,428.7 562.2,419.5L554.6,411.9C547.3,419.2 537.3,423.6 526.3,423.6Z" style="fill:white;fill-rule:nonzero;"/>
        </g>
    </g>
</svg>
