<?xml version="1.0" encoding="UTF-8" standalone="no"?>
<!DOCTYPE svg PUBLIC "-//W3C//DTD SVG 1.1//EN" "http://www.w3.org/Graphics/SVG/1.1/DTD/svg11.dtd">
<svg width="100%" height="100%" viewBox="0 0 256 64" version="1.1" xmlns="http://www.w3.org/2000/svg" xmlns:xlink="http://www.w3.org/1999/xlink" xml:space="preserve" xmlns:serif="http://www.serif.com/" style="fill-rule:evenodd;clip-rule:evenodd;stroke-linejoin:round;stroke-miterlimit:1.41421;">
    <g transform="matrix(1,0,0,1,0,-96.1)">
        <g transform="matrix(1,0,0,1,-477.5,-332.8)">
            <rect x="477.5" y="454.3" width="30.7" height="4.2" style="fill:rgb(49,133,252);"/>
        </g>
        <g transform="matrix(1,0,0,1,-477.5,-332.8)">
            <rect x="477.5" y="462.7" width="30.7" height="4.2" style="fill:rgb(49,133,252);"/>
        </g>
        <g transform="matrix(1,0,0,1,-477.5,-332.8)">
            <g>
                <path d="M497.1,450.1C499.9,447.2 503.8,445.4 508.2,445.4C512.5,445.4 516.3,447.1 519.1,449.9L522,447C518.5,443.5 513.6,441.3 508.2,441.3C501.4,441.3 495.3,444.8 491.8,450.2L497.1,450.1Z" style="fill:rgb(232,72,85);fill-rule:nonzero;"/>
                <path d="M508.2,476.2C503.7,476.2 499.6,474.3 496.8,471.1L491.7,471.1C495.2,476.6 501.3,480.3 508.3,480.3C513.7,480.3 518.6,478.1 522.1,474.6L519.2,471.7C516.3,474.5 512.5,476.2 508.2,476.2Z" style="fill:rgb(232,72,85);fill-rule:nonzero;"/>
            </g>
        </g>
        <g transform="matrix(1,0,0,1,-477.5,-332.8)">
            <g>
                <path d="M485.4,450.1C489.4,441.6 498.1,435.7 508.1,435.7C515,435.7 521.3,438.5 525.9,443L530.7,438.2C524.9,432.4 517,428.9 508.2,428.9C494.3,428.9 482.6,437.7 478.2,450.1L485.4,450.1Z" style="fill:rgb(49,133,252);fill-rule:nonzero;"/>
                <path d="M508.1,485.9C497.9,485.9 489.2,479.9 485.3,471.2L478,471.2C482.3,483.7 494.2,492.7 508.1,492.7C516.9,492.7 524.9,489.1 530.6,483.4L525.8,478.6C521.3,483.1 515,485.9 508.1,485.9Z" style="fill:rgb(49,133,252);fill-rule:nonzero;"/>
            </g>
        </g>
        <g transform="matrix(1,0,0,1,-477.5,-332.8)">
            <g>
                <path d="M588.3,468.4L591.3,474.4C591.3,474.4 587.8,477.3 581.1,477.3C572.3,477.3 564.2,470.1 564.2,461.2C564.2,452.2 572.2,444.9 581.1,444.9C587.9,444.9 591.3,447.8 591.3,447.8L588.3,453.8C588.3,453.8 585.8,451.9 582.2,451.9C575,451.9 571.9,456.9 571.9,461.1C571.9,465.3 575,470.3 582.2,470.3C585.8,470.3 588.3,468.4 588.3,468.4Z" style="fill:rgb(49,133,252);fill-rule:nonzero;"/>
                <path d="M602.4,449.3C602.4,451.5 600.6,453.3 598.4,453.3C596.2,453.3 594.4,451.5 594.4,449.3C594.4,447.1 596.2,445.3 598.4,445.3C600.7,445.3 602.4,447.1 602.4,449.3Z" style="fill:rgb(232,72,85);fill-rule:nonzero;"/>
                <rect x="595" y="457.3" width="6.7" height="19.4" style="fill:rgb(49,133,252);"/>
                <path d="M608.5,450.1L615.2,450.1L615.2,457.3L619.3,457.3L619.3,462.4L615.2,462.4L615.2,468.5C615.2,470.3 615.6,471.2 616.7,471.2C617.6,471.2 618.4,470.6 618.4,470.6L620.1,476C620.1,476 618,477.2 615.2,477.2C609.9,477.2 608.6,473.2 608.6,469.8L608.6,462.3L605.8,462.3L605.8,457.2L608.6,457.2L608.6,450.1L608.5,450.1Z" style="fill:rgb(49,133,252);fill-rule:nonzero;"/>
                <path d="M631.4,449.3C631.4,451.5 629.6,453.3 627.4,453.3C625.2,453.3 623.4,451.5 623.4,449.3C623.4,447.1 625.2,445.3 627.4,445.3C629.5,445.3 631.4,447.1 631.4,449.3Z" style="fill:rgb(232,72,85);fill-rule:nonzero;"/>
                <rect x="623.9" y="457.3" width="6.7" height="19.4" style="fill:rgb(49,133,252);"/>
                <path d="M659,468.4L662,474.4C662,474.4 658.5,477.3 651.8,477.3C643,477.3 634.9,470.1 634.9,461.2C634.9,452.2 642.9,444.9 651.8,444.9C658.6,444.9 662,447.8 662,447.8L659,453.8C659,453.8 656.5,451.9 652.9,451.9C645.7,451.9 642.6,456.9 642.6,461.1C642.6,465.3 645.7,470.3 652.9,470.3C656.5,470.3 659,468.4 659,468.4Z" style="fill:rgb(49,133,252);fill-rule:nonzero;"/>
                <path d="M673.6,456.8C676.2,456.8 678.4,457.7 679.9,459.2L679.9,457.3L686.6,457.3L686.6,476.7L680,476.7L680,474.5L679.9,474.5C678.5,476.1 676.2,477.3 673.6,477.3C668,477.3 663.9,472.7 663.9,467.1C663.9,461.4 667.9,456.8 673.6,456.8ZM675.6,471.6C678.2,471.6 680.1,469.7 680.1,467.1C680.1,464.4 678.1,462.5 675.6,462.5C673.1,462.5 671.1,464.4 671.1,467.1C671,469.7 672.8,471.6 675.6,471.6Z" style="fill:rgb(49,133,252);fill-rule:nonzero;"/>
                <path d="M707.1,458.3L704.9,462.7C704.9,462.7 702.6,461.5 700.6,461.5C699.1,461.5 698.5,461.8 698.5,462.7C698.5,463.7 699.9,464 701.5,464.6C704.1,465.4 707.4,466.9 707.4,470.8C707.4,476.5 702.2,477.5 698.2,477.5C693.5,477.5 690.7,474.9 690.7,474.9L693.4,470.3C693.4,470.3 696,472.6 698.2,472.6C699.1,472.6 700.3,472.5 700.3,471.2C700.3,469.8 698.2,469.7 696,468.6C694.1,467.6 692,466.2 692,463.3C692,459.3 695.4,457.1 700.5,457.1C704.4,456.8 707.1,458.3 707.1,458.3Z" style="fill:rgb(49,133,252);fill-rule:nonzero;"/>
                <path d="M712.2,444.2L718.9,444.2L718.9,459.4L719,459.4C720.5,457.9 722.5,456.8 724.6,456.8C728.2,456.8 733.1,458.6 733.1,464L733.1,476.7L726.3,476.7L726.3,465.7C726.3,463.8 725,461.9 722.8,461.9C720.8,461.9 718.8,463.8 718.8,465.7L718.8,476.7L712.1,476.7L712.1,444.2L712.2,444.2Z" style="fill:rgb(49,133,252);fill-rule:nonzero;"/>
            </g>
        </g>
    </g>
</svg>
