<?xml version="1.0" encoding="iso-8859-1"?>
<!-- Generator: Adobe Illustrator 18.1.1, SVG Export Plug-In . SVG Version: 6.00 Build 0)  -->
<svg version="1.1" id="Capa_1" xmlns="http://www.w3.org/2000/svg" xmlns:xlink="http://www.w3.org/1999/xlink" x="0px" y="0px"
	 viewBox="0 0 290.142 290.142" style="enable-background:new 0 0 290.142 290.142;" xml:space="preserve">
<g>
	<path id="path12103" d="M145.071,0.071c-19.793,0-37.751,3.947-51.189,10.666S70.841,27.426,70.841,39.686v110.77
		c0,12.261,9.603,22.23,23.041,28.949c12.297,6.148,28.383,9.964,46.191,10.57c-0.001,0.033-0.002,0.065-0.002,0.098v50
		c-0.002,0.167,0.003,0.334,0.018,0.5c-9.774,1.998-17.521,9.748-19.516,19.523c-0.167-0.016-0.334-0.024-0.502-0.023h-115
		c-2.761-0.039-5.032,2.168-5.071,4.929c-0.039,2.761,2.168,5.032,4.929,5.071c0.047,0.001,0.094,0.001,0.141,0h115
		c0.168,0.003,0.336-0.003,0.504-0.018c2.327,11.382,12.454,20.016,24.496,20.016c12.044,0,22.173-8.637,24.498-20.021
		c0.167,0.016,0.334,0.024,0.502,0.023h115c2.761,0.039,5.032-2.168,5.071-4.929c0.039-2.761-2.168-5.032-4.929-5.071
		c-0.047-0.001-0.094-0.001-0.141,0h-115c-0.168-0.003-0.335,0.003-0.502,0.018c-1.997-9.774-9.747-17.522-19.521-19.518
		c0.016-0.166,0.024-0.333,0.023-0.5v-50c-0.001-0.033-0.002-0.065-0.004-0.098c17.809-0.606,33.896-4.422,46.193-10.57
		c13.438-6.719,23.041-16.688,23.041-28.949V39.686c0-12.261-9.603-22.23-23.041-28.949S164.864,0.071,145.071,0.071z
		 M145.071,10.071c18.442,0,35.098,3.802,46.717,9.611c11.618,5.809,17.514,13.147,17.514,20.004
		c0,6.857-5.895,14.195-17.514,20.004c-11.618,5.809-28.275,9.611-46.717,9.611s-35.1-3.802-46.719-9.611
		S80.841,46.543,80.841,39.686c0-6.857,5.895-14.195,17.514-20.004S126.629,10.071,145.071,10.071z M149.071,14.956
		c-18.055,0-34.329,3.755-45.428,9.305c-11.107,5.553-15.918,11.915-15.918,17.426c-0.02,1.381,1.084,2.516,2.465,2.535
		c1.381,0.02,2.516-1.084,2.535-2.465c0-0.024,0-0.047,0-0.071c0-2.104,2.969-7.861,13.154-12.953
		c10.142-5.071,25.839-8.777,43.191-8.777c1.381,0.02,2.516-1.084,2.535-2.465s-1.084-2.516-2.465-2.535
		C149.118,14.956,149.095,14.956,149.071,14.956z M80.841,59.892c3.629,3.326,8.07,6.259,13.041,8.744
		c13.438,6.719,31.396,10.666,51.189,10.666s37.751-3.947,51.189-10.666c4.971-2.486,9.412-5.418,13.041-8.744v16.717
		c0,6.857-5.895,14.197-17.514,20.006s-28.275,9.611-46.717,9.611s-35.098-3.802-46.717-9.611S80.841,83.465,80.841,76.608V59.892z
		 M80.841,96.813c3.629,3.327,8.07,6.261,13.041,8.746c13.438,6.719,31.396,10.666,51.189,10.666s37.751-3.947,51.189-10.666
		c4.971-2.486,9.412-5.419,13.041-8.746v16.719c0,6.857-5.895,14.197-17.514,20.006s-28.275,9.609-46.717,9.609
		s-35.098-3.8-46.717-9.609s-17.514-13.149-17.514-20.006V96.813z M80.841,133.737c3.629,3.326,8.07,6.259,13.041,8.744
		c13.438,6.719,31.396,10.666,51.189,10.666s37.751-3.947,51.189-10.666c4.971-2.486,9.412-5.418,13.041-8.744v16.719
		c0,6.857-5.895,14.195-17.514,20.004s-28.275,9.611-46.717,9.611s-35.098-3.802-46.717-9.611s-17.514-13.147-17.514-20.004V133.737
		z M145.071,250.071c8.343,0,15,6.657,15,15s-6.657,15-15,15s-15-6.657-15-15S136.728,250.071,145.071,250.071z M145.071,252.573
		c-6.874,0-12.5,5.626-12.5,12.5c-0.02,1.381,1.084,2.516,2.465,2.535c1.381,0.02,2.516-1.084,2.535-2.465c0-0.024,0-0.047,0-0.071
		c0-4.172,3.328-7.5,7.5-7.5c1.381,0.02,2.516-1.084,2.535-2.465c0.02-1.381-1.084-2.516-2.465-2.535
		C145.118,252.573,145.095,252.573,145.071,252.573z"/>
</g>
<g>
</g>
<g>
</g>
<g>
</g>
<g>
</g>
<g>
</g>
<g>
</g>
<g>
</g>
<g>
</g>
<g>
</g>
<g>
</g>
<g>
</g>
<g>
</g>
<g>
</g>
<g>
</g>
<g>
</g>
</svg>
