<?xml version="1.0" encoding="iso-8859-1"?>
<!-- Generator: Adobe Illustrator 19.0.0, SVG Export Plug-In . SVG Version: 6.00 Build 0)  -->
<svg version="1.1" id="Capa_1" xmlns="http://www.w3.org/2000/svg" xmlns:xlink="http://www.w3.org/1999/xlink" x="0px" y="0px"
	 viewBox="0 0 512 512" style="enable-background:new 0 0 512 512;" xml:space="preserve">
<g>
	<g>
		<path d="M211.5,494.62c-1.86-1.861-4.44-2.93-7.07-2.93c-2.64,0-5.21,1.069-7.07,2.93c-1.86,1.861-2.93,4.44-2.93,7.07
			s1.07,5.21,2.93,7.069c1.86,1.86,4.44,2.931,7.07,2.931s5.21-1.07,7.07-2.931c1.86-1.859,2.93-4.439,2.93-7.069
			S213.36,496.48,211.5,494.62z"/>
	</g>
</g>
<g>
	<g>
		<path d="M58,313.165c-5.523,0-10,4.477-10,10v92.833c0,5.522,4.477,10,10,10s10-4.478,10-10v-92.833
			C68,317.643,63.523,313.165,58,313.165z"/>
	</g>
</g>
<g>
	<g>
		<path d="M65.07,274.43c-1.86-1.86-4.44-2.931-7.07-2.931s-5.21,1.07-7.07,2.931c-1.86,1.859-2.93,4.43-2.93,7.069
			c0,2.63,1.07,5.21,2.93,7.07c1.86,1.86,4.44,2.93,7.07,2.93s5.21-1.069,7.07-2.93c1.86-1.861,2.93-4.44,2.93-7.07
			S66.93,276.29,65.07,274.43z"/>
	</g>
</g>
<g>
	<g>
		<path d="M512,270.69c0-23.943-17.267-43.917-40-48.157V157.69c0-27.57-22.43-50-50-50h-52.256L265.29,3.236
			c-3.905-3.904-10.237-3.904-14.143,0l-23.245,23.245L204.657,3.236c-3.905-3.904-10.237-3.904-14.142,0L85.44,108.312
			c-1.074-0.394-2.229-0.62-3.44-0.62H50c-27.57,0-50,22.43-50,50c0,0.729,0.024,1.453,0.055,2.174
			C0.019,160.208,0,160.557,0,160.911v300.78c0,27.57,22.43,50,50,50h112.333c5.523,0,10-4.478,10-10c0-5.522-4.477-10-10-10H50
			c-16.542,0-30-13.458-30-30V197.663c8.363,6.292,18.753,10.027,30,10.027l209.326,0.203H372.93c0.326,0,0.652-0.017,0.976-0.048
			c0.019-0.002,0.038-0.005,0.057-0.007c15.156,1.493,27.037,14.31,27.037,29.853v62H280c-27.57,0-50,22.43-50,50s22.43,50,50,50
			h121v62c0,16.542-13.458,30-30,30H246.333c-5.523,0-10,4.478-10,10c0,5.522,4.477,10,10,10H371c27.57,0,50-22.43,50-50v-4h1
			c27.57,0,50-22.43,50-50v-9.006c22.795-4.646,40-24.847,40-48.994v-77c0-0.209-0.006-0.417-0.019-0.623
			C511.994,271.61,512,271.15,512,270.69z M238.81,43.861l19.409-19.41l21.429,21.429c-12.783,7.699-28.842,7.9-41.8,0.611
			C238.297,45.655,238.615,44.768,238.81,43.861z M20,157.69c0-16.542,13.458-30,30-30h16.061l-43.063,43.063
			C21.079,166.802,20,162.37,20,157.69z M50,187.69c-4.571,0-8.905-1.032-12.786-2.868L197.586,24.45l16.174,16.174L66.693,187.69
			H50z M144.379,187.69c1.36-1.675,2.805-3.287,4.344-4.825c11.809-11.81,27.511-18.313,44.211-18.313
			c16.7,0,32.402,6.504,44.211,18.313c1.539,1.538,2.984,3.151,4.344,4.825H144.379z M353.714,187.69h-88.275
			c-3.776-6.962-8.51-13.326-14.152-18.968c-15.587-15.587-36.311-24.171-58.354-24.171c-22.043,0-42.767,8.584-58.354,24.171
			c-5.643,5.642-10.377,12.006-14.152,18.968h-25.45L222.365,60.304c10.673,7.662,23.26,11.506,35.854,11.506
			s25.181-3.843,35.854-11.506l65.298,65.298C346.246,143.885,344.357,167.791,353.714,187.69z M373.796,182.885
			c-7.91-13.133-7.91-29.726,0-42.858l21.429,21.429L373.796,182.885z M392.437,192.528l24.001-24.001
			c3.905-3.905,3.905-10.237,0-14.143l-26.694-26.694H422c16.542,0,30,13.458,30,30v142h-31v-62
			C421,217.788,409.31,200.57,392.437,192.528z M452,407.69c0,16.542-13.458,30-30,30h-1v-38h31V407.69z M492,349.69
			c0,16.542-13.458,30-30,30H280c-16.542,0-30-13.458-30-30s13.458-30,30-30h183c10.843,0,20.875-3.54,29-9.525V349.69z
			 M472,298.253v-55.126c11.597,3.796,20,14.714,20,27.563S483.597,294.457,472,298.253z"/>
	</g>
</g>
<g>
	<g>
		<path d="M289.07,342.62c-1.86-1.86-4.44-2.93-7.07-2.93s-5.21,1.069-7.07,2.93c-1.86,1.86-2.93,4.44-2.93,7.07
			s1.07,5.21,2.93,7.069c1.86,1.86,4.44,2.931,7.07,2.931s5.21-1.07,7.07-2.931c1.86-1.859,2.93-4.439,2.93-7.069
			S290.93,344.48,289.07,342.62z"/>
	</g>
</g>
<g>
	<g>
		<path d="M293.576,126.098c-3.906-3.903-10.237-3.904-14.142,0l-17.38,17.38c-3.905,3.905-3.906,10.237,0,14.143
			c1.952,1.952,4.511,2.929,7.071,2.929c2.559,0,5.119-0.977,7.071-2.929l17.38-17.38
			C297.481,136.336,297.482,130.005,293.576,126.098z"/>
	</g>
</g>
<g>
</g>
<g>
</g>
<g>
</g>
<g>
</g>
<g>
</g>
<g>
</g>
<g>
</g>
<g>
</g>
<g>
</g>
<g>
</g>
<g>
</g>
<g>
</g>
<g>
</g>
<g>
</g>
<g>
</g>
</svg>
